<svg xmlns="http://www.w3.org/2000/svg" viewBox="0 0 600 451.78"><defs><style>.cls-1{fill:#f0292c;}.cls-2{fill:#212222;}.cls-3{fill:#11385b;}</style></defs><g id="Capa_2" data-name="Capa 2"><g id="Capa_1-2" data-name="Capa 1"><path class="cls-1" d="M278.54,78.43S273.4,5.91,342.6,17.09l-95.94-2.57Z"/><path class="cls-2" d="M351.19,106.37c-1.48.12-2.41.11-2.41.11h-1.67c1.13,0,2.25,0,3.37-.08C350.72,106.4,351,106.39,351.19,106.37Z"/><path class="cls-2" d="M320.56,41.5c-4,0-6.34-2.42-6.28-6.32.05-3.62,2.35-5.69,6.17-6,3.84.31,6.21,2.37,6.14,6.37C326.52,39.26,324.19,41.47,320.56,41.5Z"/><path class="cls-2" d="M438,258.28c-9.66.06-19.33-.11-29,.08-3.06.06-5-.75-6.74-3.45q-12.76-19.53-26-38.75c-2-2.84-1.51-4.47.48-7,17-21.6,20.41-45.48,11.34-71.24-2.24-6.36-3.52-14.41-6.75-21.36-3.43-7.36-7.34-11.73-13.85-12.62C356.06,100.69,336.24,74.55,336.3,65c0-10.58,7.4-18.15,19.54-18.22,13-.09,26-.11,39,0,4.52.05,8.25-1,8.26-6.12s-3.67-6.34-8.18-6.28c-8.47.12-17-.06-25.43.09-2.75.05-4-.7-5-3.51-4.8-13.08-14.9-20.12-28.87-20.18q-39.93-.19-79.85,0c-6,0-10.74-1.87-13.91-7.12-2.21-3.66-5.39-4.74-9-2.52-3.42,2.09-3.61,5.26-1.85,8.75,9.32,18.45,19.17,36.63,27.86,55.38,15.7,33.87,16.11,40.76,16,44.09-8.59,3.22-15.69,9.19-21.35,17.78Q208.21,195.94,163,264.81c-1.21,1.83-3.16,3.44-3,6.17h41c20.5,0,36.53-8.4,47.73-25.61,2-3,4.08-4,7.63-4,20.3.12,40.6,0,60.91-.09,1.61,0,3.05-.18,4.1,1.48,3.12,4.93,6.35,9.8,10.08,15.51-12.11,0-23.27.06-34.43,0-4.73,0-9.2.63-9.19,6.47,0,5.56,4.32,6.12,8.85,6.11q29,0,58.11,0l-9.28-14.09a5.09,5.09,0,0,1-.29-.42l-.62-1-.24-.35c-3.5-5.47-7.16-10.88-10.88-16.51,10.62-3.45,20.21-7.88,28.47-14.7,2.71-2.24,3.8-1.14,5.32,1.17,7.1,10.79,14.33,21.52,22.25,33.36h-.06l8.25,12.53,40.31,0c4.31,0,8.22-.58,8.36-6C446.51,259.27,442.62,258.25,438,258.28ZM267.85,55.69c-3.93-7.61-7.56-15.45-11.49-23.35a6.51,6.51,0,0,1,5.83-9.41h24.94c15.55,0,31.1-.07,46.65,0C343.57,23,349.24,27.49,352,35c-17.8,1.57-51.85,24.46-.52,71.32l-.27,0c-.23,0-.47,0-.71,0-1.12,0-2.24.07-3.37.08-6.35.13-12.76,0-19.36,0H296.18c-.67.06-1.34.08-2,.09s-1.57,0-2.37,0c-1.19,0-2.35,0-3.51.09-.87-2.53-2.78-8.13-4.86-14.21A269.81,269.81,0,0,0,267.85,55.69Zm41,173.47H259.63c5-7.58,8.78-14.86,14.37-20.83,6.18-6.62,17-7,23.38-.58,5.91,5.94,9.57,13.57,14.75,21.2C310.32,229.07,309.61,229.16,308.89,229.16ZM355,213.49a80.07,80.07,0,0,1-25,12.93c-3.15,1-4.55.07-6.11-2.51-3.26-5.38-7.09-10.42-10.3-15.84-6.26-10.58-15-17.06-28.22-17.32,13.86-25.45,41-26.81,56.65-3.49,4.62,6.87,9.11,13.81,13.88,20.57C357.58,210.3,357.41,211.63,355,213.49Zm8.71-16.07c-3.92-6.82-8.59-13.21-13.07-19.68-18-26-54.78-25.93-72.33.28q-19.72,29.44-39,59.2c-9.37,14.47-22.35,21.7-39.59,21.34-5.49-.1-11,0-17.62,0,18.05-27.44,35.34-53.74,52.64-80,9.75-14.81,19.55-29.56,29.25-44.4,6.56-10,15.6-15.18,27.71-15,14,.15,28,0,42,0,6.65,0,13.33.27,20-.53a18.5,18.5,0,0,1,20.22,14.09c1.25,5.23,2.83,10.3,4.28,15.43,4.9,17.35,2.2,33.93-8,49.11C367.87,200.65,366.52,202.39,363.67,197.42Z"/><polygon class="cls-3" points="43.21 434.79 43.21 449.79 0 449.79 0 330.42 15.24 330.42 15.24 434.79 43.21 434.79"/><path class="cls-3" d="M105.87,408,93.68,330.42H71.59L59.34,408.15l-5.52,41.64H69.16L72.64,424H92.58L96,449.79H111.4Zm-31.31,1,8-60.53,8,60.53Z"/><path class="cls-3" d="M175.07,330.42v96.89c0,16.43-7.88,24.42-24.08,24.47s-24-8-24-24.47V330.42h15.25v96.89c0,7.78,4.77,9.4,8.78,9.4,5.78,0,8.84-3.24,8.84-9.4V330.42Z"/><path class="cls-3" d="M228.54,393.63l1.07-.39c8.79-3.23,13.08-9.79,13.08-20.06v-18.3c0-16.41-7.28-24.42-22.23-24.46h-24.4V449.79H211.3V396.73l4.22-.59,15.85,53.65H248.1Zm-1.1-20.45c0,4.38-1.86,7.35-5.5,8.82a17.65,17.65,0,0,1-5.46.58H211.3V345.43h7.36c4,0,8.78,1.63,8.78,9.45Z"/><polygon class="cls-3" points="279.23 345.43 279.23 382.58 303.29 382.58 303.29 397.64 279.23 397.64 279.23 434.79 307.19 434.79 307.19 449.79 263.98 449.79 263.98 330.42 307.19 330.42 307.19 345.43 279.23 345.43"/><polygon class="cls-3" points="368.91 434.79 368.91 449.79 325.69 449.79 325.69 330.42 340.94 330.42 340.94 434.79 368.91 434.79"/><path class="cls-3" d="M445.49,332.15H421.33V448.06h23.05c14.75,0,21.61-7.23,21.61-22.67V354.88C466,339.41,459.48,332.19,445.49,332.15Zm8.72,93.24c0,7.07-3.84,11.13-10.51,11.13H433.13V343.7H443.7c6.67,0,10.51,4.08,10.51,11.18Z"/><polygon class="cls-3" points="501.61 343.7 501.61 384.3 525.67 384.3 525.67 395.91 501.61 395.91 501.61 436.52 529.57 436.52 529.57 448.06 489.81 448.06 489.81 332.15 529.57 332.15 529.57 343.7 501.61 343.7"/><polygon class="cls-3" points="600 332.15 594.74 371.99 582.78 448.06 563.63 448.06 551.63 371.93 546.36 332.15 558.28 332.15 573.14 438.06 588.08 332.15 600 332.15"/></g></g></svg>